<svg xmlns="http://www.w3.org/2000/svg" viewBox="0 0 133 133">
  <defs>
    <style>
      .cls-1 {
        fill: #fcebb3;
        stroke: #fff;
        stroke-width: 5px;
      }

      .cls-2, .cls-5 {
        fill: none;
      }

      .cls-2 {
        stroke: #707070;
        stroke-width: 4px;
      }

      .cls-3 {
        fill: #ed7373;
      }

      .cls-4 {
        stroke: none;
      }
    </style>
  </defs>
  <g id="Group_1" data-name="Group 1" transform="translate(5 5)">
    <g id="Ellipse_2" data-name="Ellipse 2" class="cls-1">
      <circle class="cls-4" cx="61.5" cy="61.5" r="61.5"/>
      <circle class="cls-5" cx="61.5" cy="61.5" r="64"/>
    </g>
    <path id="Path_3" data-name="Path 3" class="cls-2" d="M2.455,21.648c28.614-7.59,31.613,8.969,26.425,0S2.455,4.306,2.455,4.306" transform="translate(19.049 32.571)"/>
    <path id="Path_4" data-name="Path 4" class="cls-2" d="M29.453,4.978S9.906,7.547,2.845,18.724" transform="translate(68.909 35.495)"/>
    <path id="Path_5" data-name="Path 5" class="cls-3" d="M23.712,0C36.093,0,43.37,3.831,44.162,7.314S38.655,14,24.129,16.013.869,15.44,0,9.116C1.772,3.074,11.33,0,23.712,0Z" transform="matrix(0.766, -0.643, 0.643, 0.766, 66.525, 77.106)"/>
    <path id="Path_1" data-name="Path 1" class="cls-2" d="M2.455,24.722S13.472,44.5,42.3,44.5a49.149,49.149,0,0,0,19.167-3.882c6.4-2.529,11.548-6.681,16.4-12.567,4.3-5.108,7.025-12.364,6.926-17.214-6.12-9.018-33.634,19.337-29.035,23.179S77.872,16.04,77.872,16.04" transform="translate(19.049 47.886)"/>
  </g>
</svg>
