<svg xmlns="http://www.w3.org/2000/svg" xmlns:xlink="http://www.w3.org/1999/xlink" width="297" height="48" viewBox="0 0 297 48">
    <defs>
        <path id="a" d="M0 .377h30.71v47.456H0z"/>
        <path id="c" d="M.352.85h15.335v23.188H.352z"/>
    </defs>
    <g fill="none" fill-rule="evenodd">
        <g transform="translate(0 -.21)">
            <mask id="b" fill="#fff">
                <use xlink:href="#a"/>
            </mask>
            <path fill="#4BBEBE" d="M30.377 36.873c-2.113-4.235-3.706-7.526-5.77-11.76l.019-.008c-.73-1.665-2.479-2.22-4.04-1.594-.517.209-6.51 2.591-7.888 3.152-2.29.612-3.426-.686-3.882-1.467-.592-1.236-4.002-8.772-5.28-11.647-.267-.6-.393-1.1-.584-1.722-.47-1.545.988-2.898 2.231-3.446 1.579-.697 3.854-.412 4.618.662.328.461 3.739 8.046 5.204 11.324l-.005.001c.722 1.666 2.47 2.228 4.032 1.605 2.055-.819 8.718-3.713 9.23-3.932 1.546-.66 2.291-2.249 1.48-3.88l-.02.007c-1.923-4.292-3.426-7.62-5.32-11.946C23.673.557 21.923 0 20.363.628 13.7 3.306 12.436 3.89 5.764 6.543 4.73 6.953 2.474 8.167 2 9.13c-.905 1.145-.981 2.927-.365 4.29C2.775 15.948 14.542 40.83 14.542 40.83c.247.507.49 1.027.628 1.567.326 1.257-.988 3.029-2.6 3.653-1.268.494-3.314.59-4.208-.78-.359-.549-.664-.977-.954-1.566-.713-1.45-1.423-2.903-2.131-4.354-1.24-2.548-2.804-5.823-3.667-7.572a.656.656 0 0 0-.348-.309c-.31-.125-.6-.113-.81-.006-.208.105-.445.258-.452.526-.003.163.054.412.121.546l1.472 3.027c.374.795.71 1.505.98 2.055 1.22 2.497 2.442 4.994 3.65 7.494.653 1.347 2.103 2.497 3.61 2.644 1.076.32 3.551-.426 4.572-.866 6.584-2.84 7.899-3.322 14.494-6.138 1.545-.658 2.291-2.25 1.478-3.879" mask="url(#b)"/>
        </g>
        <path fill="#4BBEBE" d="M12.892 22.558c.199.423-.006.92-.457 1.108-.452.187-.978-.007-1.175-.431L5.777 11.517c-.199-.424.006-.92.458-1.108.45-.186.979.006 1.177.43l5.48 11.719zM11.548 42.02c.201.421-.001.92-.452 1.11-.45.19-.98 0-1.18-.424L4.363 31.019c-.201-.423 0-.921.45-1.111.45-.19.977 0 1.18.423l5.555 11.689zM65.249 29.066c0 3.721-3.339 6.43-8.462 6.43-3.305 0-5.952-.759-7.866-1.584-.497-.198-.929-.76-.929-1.353 0-.722.532-1.383 1.357-1.383.197 0 .395.033.629.133 1.486.657 3.667 1.35 6.51 1.35 3.273 0 5.781-.923 5.781-3.795 0-4.878-14.044-2.175-14.044-10.285 0-3.663 2.976-6.764 8.562-6.764 2.575 0 4.791.427 6.577 1.088.463.165.925.532.925 1.32 0 .662-.494 1.388-1.325 1.388-.163 0-.36-.066-.525-.133a16.161 16.161 0 0 0-5.323-.89c-3.338 0-5.882 1.284-5.882 3.76 0 5.705 14.015 2.007 14.015 10.718M92.999 13.732c0 .79-.626 1.386-1.422 1.386h-6.71v18.895c0 .825-.694 1.482-1.518 1.482a1.478 1.478 0 0 1-1.487-1.482V15.118h-6.745c-.796 0-1.387-.595-1.387-1.386 0-.794.59-1.418 1.387-1.418h16.46c.796 0 1.422.624 1.422 1.418M121.342 23.652c0-5.076-3.142-9.033-8.594-9.033-5.49 0-8.592 3.957-8.592 9.033 0 5.08 3.103 9.039 8.592 9.039 5.452 0 8.594-3.96 8.594-9.04m3.007 0c-.13 6.897-4.558 11.844-11.6 11.844-7.074 0-11.467-4.947-11.601-11.843.134-6.89 4.527-11.837 11.6-11.837 7.043 0 11.471 4.947 11.601 11.837M152.313 32.26c-.033.626-.296.955-.727 1.19-2.051 1.152-4.296 2.044-7.534 2.044-6.577 0-11.573-4.487-11.573-11.842 0-7.353 4.996-11.836 11.573-11.836 3.238 0 5.483.89 7.534 2.045.431.23.694.561.727 1.185.035.693-.494 1.322-1.325 1.322-.161 0-.393-.036-.59-.133-1.753-.923-3.472-1.55-6.05-1.55-5.852 0-8.858 3.892-8.858 8.967 0 5.08 3.006 8.971 8.859 8.971 2.577 0 4.296-.625 6.049-1.551a1.41 1.41 0 0 1 .59-.129c.831 0 1.36.624 1.325 1.317M181.018 34.045c.031.793-.63 1.45-1.454 1.45-.497 0-.928-.23-1.191-.59l-8.528-10.85-3.766 3.792v6.166c0 .825-.695 1.482-1.52 1.482-.826 0-1.489-.657-1.489-1.482V13.666c0-.824.663-1.52 1.49-1.52a1.54 1.54 0 0 1 1.519 1.52v10.485l11.304-11.474c.23-.266.627-.532 1.124-.532.79 0 1.454.629 1.388 1.422-.033.367-.133.693-.364.922l-7.639 7.583 8.762 11.015c.234.297.364.595.364.958M197.79 15.118v7.287h10.18c.791 0 1.42.626 1.42 1.415 0 .794-.629 1.385-1.42 1.385h-10.18v8.807c0 .825-.695 1.483-1.525 1.483a1.478 1.478 0 0 1-1.486-1.483V13.83c0-.823.661-1.515 1.486-1.515h12.862c.792 0 1.42.624 1.42 1.417 0 .79-.628 1.386-1.42 1.386H197.79zM239.407 34.11c0 .79-.626 1.384-1.422 1.384H224.73c-.825 0-1.485-.66-1.485-1.482v-20.02c0-.823.66-1.516 1.485-1.516h13.255c.796 0 1.422.624 1.422 1.418 0 .79-.626 1.386-1.422 1.386h-11.736v7.287h10.546c.795 0 1.42.626 1.42 1.415 0 .793-.625 1.386-1.42 1.386h-10.546v7.323h11.736c.796 0 1.422.625 1.422 1.419M268.07 34.11c0 .79-.631 1.384-1.423 1.384h-13.255a1.48 1.48 0 0 1-1.486-1.482v-20.02c0-.823.662-1.52 1.486-1.52h13.255c.792 0 1.422.628 1.422 1.422 0 .79-.63 1.386-1.422 1.386h-11.736v7.287h10.546c.794 0 1.42.626 1.42 1.418 0 .787-.626 1.383-1.42 1.383h-10.546v7.323h11.736a1.41 1.41 0 0 1 1.422 1.419"/>
        <g transform="translate(280.63 11.457)">
            <mask id="d" fill="#fff">
                <use xlink:href="#c"/>
            </mask>
            <path fill="#4BBEBE" d="M15.687 22.555c0 .823-.69 1.483-1.519 1.483H2.436A2.072 2.072 0 0 1 .352 21.96V2.372c0-.825.662-1.522 1.486-1.522A1.54 1.54 0 0 1 3.36 2.372v18.662h10.81c.827 0 1.518.693 1.518 1.521" mask="url(#d)"/>
        </g>
    </g>
</svg>
