<?xml version="1.0" encoding="iso-8859-1"?>
<!-- Generator: Adobe Illustrator 25.2.1, SVG Export Plug-In . SVG Version: 6.00 Build 0)  -->
<svg version="1.1" id="&#x5716;&#x5C64;_1" xmlns="http://www.w3.org/2000/svg" xmlns:xlink="http://www.w3.org/1999/xlink" x="0px"
	 y="0px" viewBox="0 0 490.34 108" style="enable-background:new 0 0 490.34 108;" xml:space="preserve">
<path style="fill:#56C4C5;" d="M65.956,87.655c-5.41,0-10.46-0.14-15.5,0s-9.77-0.55-13.29-4.72c-2.563-3.084-4.03-6.932-4.17-10.94
	c0.103-1.24-0.733-2.362-1.95-2.62c-2.78-0.861-4.645-3.471-4.56-6.38c-0.06-4.31,0-8.62,0-12.94
	c-0.152-2.936,1.704-5.603,4.51-6.48c1.67-0.59,2-1.5,2-3.11c-0.114-5.062,0.05-10.126,0.49-15.17c1.006-7.45,7.486-12.932,15-12.69
	c20.75,0.31,41.52,0.35,62.27,0c8.1-0.265,14.946,5.952,15.46,14.04c0.33,4.87,0.24,9.78,0.24,14.67c0,1.56,0.23,2.5,2.05,3
	c3.11,0.89,4.67,3.28,4.7,6.56c0.05,4.31,0,8.63,0,12.94c0,3-1.41,5.41-4.32,6.3c-2.14,0.65-2.41,2-2.68,3.8
	c-0.94,6.36-4,11.21-10.45,13.21c-1.195,0.329-2.431,0.484-3.67,0.46c-6.48,0-13-0.1-19.43,0.1c-1.939,0.087-3.825,0.665-5.48,1.68
	c-4.77,3-9.36,6.28-14,9.5c-1.81,1.26-3.69,2.13-5.69,0.75s-2.71-3.43-2.33-5.86C65.406,91.825,65.646,89.885,65.956,87.655z
	 M38.016,39.075c0,11.27-0.18,22.13,0.07,33c0.15,6.92,4.4,10.65,11.4,10.67c5.81,0,11.62,0,17.43,0c4.47,0,5,0.72,4.23,5.15
	c-0.37,2.09-0.57,4.21-0.92,6.91c5.35-3.68,10-7.06,14.8-10.09c1.807-1.128,3.872-1.779,6-1.89c6.54-0.24,13.11-0.05,19.66-0.1
	c5.52-0.05,8.8-2.49,10.25-7.62c0.334-1.28,0.498-2.598,0.49-3.92c0-10,0-20.07,0-30.1c-0.043-0.671-0.127-1.339-0.25-2
	c-6,0-11.93,0-17.81,0c-7.09,0-13.55-1.81-18.52-7c-2.46-2.58-4.24-5.8-6.3-8.7c-2.166,5.695-6.402,10.362-11.86,13.07
	c-3.911,1.851-8.205,2.749-12.53,2.62C48.866,39.095,43.576,39.075,38.016,39.075z M32.716,65.075v-17.42
	c-2.58,1.79-2.54,15.89,0,17.46V65.075z M126.656,48.545v17.51c2.19-0.93,2.2-1,2.21-4.15c0.03-12.36,0.03-12.36-2.21-13.32V48.545z
	"/>
<path style="fill:#FFFFFF;" d="M32.716,47.655v17.46"/>
<path style="fill:#56C4C5;" d="M79.946,73.565c-9.15-0.22-15.78-5.13-17.85-13.48c-0.284-0.689-0.377-1.442-0.27-2.18
	c0.34-0.87,1-2.08,1.74-2.19c0.74-0.11,1.81,0.79,2.33,1.54s0.49,1.9,0.8,2.84c1.88,5.65,6.48,8.78,13,8.83
	c6.52,0.05,11.22-3,13.22-8.55c0.334-0.846,0.595-1.719,0.78-2.61c0.28-1.56,1.18-2.66,2.66-2.06c0.954,0.613,1.534,1.666,1.54,2.8
	c-1.07,6.4-4.46,11.18-10.7,13.46C84.819,72.663,82.397,73.197,79.946,73.565z"/>
<g id="CJz1BK.tif">
	<g>
		<path d="M190.658,48.27c3.577-2.574,7.06-3.852,11.045-3.467c7.505,0.724,12.357,5.739,12.534,13.23
			c0.117,4.969,0.002,9.944,0.034,14.916c0.013,1.965-0.754,3.265-2.837,3.294c-2.139,0.03-2.897-1.465-2.926-3.289
			c-0.074-4.639-0.001-9.281-0.045-13.921c-0.067-7.065-6.159-11.116-12.787-8.539c-3.33,1.295-4.989,3.648-5.009,7.221
			c-0.025,4.558-0.005,9.115-0.008,13.673c0,0.663,0.044,1.333-0.04,1.986c-0.227,1.767-1.069,3.019-3.052,2.878
			c-1.915-0.136-2.712-1.326-2.703-3.192c0.024-4.806,0.007-9.613,0.007-14.419c0-7.79,0.025-15.579-0.017-23.369
			c-0.011-1.975,0.442-3.499,2.717-3.675c1.967-0.152,3.041,1.087,3.073,3.629C190.697,39.415,190.658,43.606,190.658,48.27z"/>
		<path d="M248.153,71.725c-3.366,3.31-7.229,5.016-11.941,4.65c-8.038-0.624-13.853-7.503-13.517-16.143
			c0.355-9.135,7.07-15.567,16.08-15.402c8.968,0.164,15.457,6.869,15.484,16.009c0.011,3.808-0.033,7.617,0.016,11.425
			c0.026,1.98-0.198,3.82-2.656,3.97c-2.41,0.147-3.049-1.549-3.173-3.573C248.432,72.43,248.308,72.207,248.153,71.725z
			 M228.181,60.724c0.041,6.185,4.433,10.69,10.403,10.669c5.884-0.021,10.264-4.675,10.221-10.862
			c-0.043-6.13-4.55-10.763-10.42-10.71C232.5,49.875,228.14,54.533,228.181,60.724z"/>
		<path d="M340.009,71.42c-3.585,3.59-7.445,5.308-12.161,4.957c-6.876-0.511-12.457-5.716-13.396-12.868
			c-0.848-6.458,0.866-12.078,6.454-15.904c5.232-3.582,10.934-3.848,16.555-1.015c5.232,2.637,8,7.147,8.279,12.962
			c0.21,4.379,0.041,8.774,0.098,13.162c0.026,2.012-0.595,3.51-2.845,3.537c-2.127,0.026-2.829-1.393-2.822-3.306
			C340.172,72.622,340.105,72.298,340.009,71.42z M319.762,60.567c-0.018,6.227,4.308,10.802,10.236,10.826
			c5.927,0.024,10.348-4.551,10.362-10.724c0.014-6.21-4.357-10.837-10.254-10.852C324.187,49.801,319.779,54.382,319.762,60.567z"
			/>
		<path d="M384.633,58.556c3.675,4.512,7.208,8.808,10.69,13.144c1.74,2.167,1.209,4.489-1.182,4.717
			c-0.985,0.094-2.368-0.678-3.071-1.486c-2.997-3.444-5.805-7.051-8.69-10.592c-0.567-0.696-1.168-1.364-1.718-2.004
			c-2.408,1.097-3.284,2.779-3.04,5.244c0.187,1.888,0.092,3.814,0.003,5.717c-0.086,1.812-0.991,3.043-2.965,2.924
			c-1.853-0.112-2.488-1.348-2.486-3.082c0.014-12.77,0.013-25.54-0.002-38.31c-0.002-1.784,0.455-3.178,2.55-3.228
			c2.173-0.052,2.911,1.357,2.921,3.23c0.035,6.551,0.017,13.102,0.018,19.653c0,0.87,0,1.74,0,3.251
			c4.267-3.781,8.029-7.116,11.793-10.449c0.684-0.606,1.379-1.201,2.06-1.812c1.328-1.192,2.685-1.351,3.92,0.057
			c1.173,1.337,0.755,2.614-0.447,3.699c-2.776,2.505-5.578,4.982-8.365,7.476C386.009,57.252,385.417,57.824,384.633,58.556z"/>
		<path d="M405.95,62.707c0.365,5.352,5.883,9.68,11.528,8.867c2.154-0.31,4.232-1.335,6.265-2.215
			c1.598-0.691,3.064-0.742,3.85,0.857c0.342,0.695,0.049,2.203-0.525,2.762c-3.966,3.864-12.692,4.565-18.375,1.646
			c-5.884-3.022-9.099-9.412-8.166-16.231c0.944-6.904,5.387-11.945,11.694-13.267c9.895-2.075,17.593,3.928,17.976,14.018
			c0.096,2.522-0.599,3.34-3.129,3.357c-6.407,0.043-12.814,0.012-19.221,0.027C407.211,62.53,406.575,62.646,405.95,62.707z
			 M405.926,57.909c6.396,0,12.603,0,18.816,0c-0.225-4.761-3.608-8.094-8.323-8.338C410.953,49.289,406.861,52.47,405.926,57.909z"
			/>
		<path d="M297.307,36.942c-4.125,0-7.861-0.038-11.597,0.015c-1.989,0.029-3.652-0.495-3.653-2.726
			c-0.001-2.265,1.693-2.682,3.673-2.673c9.654,0.042,19.308,0.038,28.962,0.003c1.87-0.007,3.455,0.357,3.522,2.531
			c0.07,2.283-1.502,2.873-3.505,2.858c-3.73-0.029-7.46-0.008-11.42-0.008c-0.048,1.063-0.122,1.94-0.123,2.818
			c-0.008,10.521-0.005,21.041-0.006,31.562c0,0.663,0.057,1.335-0.036,1.986c-0.25,1.76-1.162,3.019-3.082,2.906
			c-1.872-0.11-2.742-1.308-2.738-3.18c0.015-5.882,0.003-11.763,0.002-17.645C297.306,49.358,297.307,43.327,297.307,36.942z"/>
		<path d="M164.01,76.434c-8.32-0.349-14.409-5.769-15.277-13.6c-0.945-8.527,3.357-15.524,10.996-17.461
			c5.496-1.393,10.578-0.512,14.778,3.645c1.15,1.138,2.08,2.321,0.73,3.841c-1.394,1.569-2.842,0.994-4.13-0.191
			c-2.121-1.951-4.554-2.931-7.473-2.831c-5.486,0.189-9.346,4.277-9.474,10.134c-0.139,6.367,3.518,10.998,9.017,11.409
			c2.732,0.204,5.288-0.219,7.577-1.885c1.427-1.039,3.003-1.295,4.145,0.375c1.14,1.667-0.004,2.746-1.281,3.706
			C170.771,75.718,167.529,76.531,164.01,76.434z"/>
		<path d="M264.472,51.174c-2.279-0.526-5.074,0.471-5.155-2.53c-0.092-3.377,3.069-2.12,5.156-2.834
			c0-2.332-0.005-4.715,0.001-7.098c0.005-1.909,0.454-3.529,2.777-3.662c1.958-0.112,2.882,1.099,2.904,3.735
			c0.02,2.31,0.004,4.62,0.004,7.329c1.633,0,3.093-0.021,4.553,0.006c1.685,0.031,3.055,0.628,2.997,2.542
			c-0.054,1.794-1.415,2.259-2.985,2.265c-1.398,0.006-2.795,0.001-4.334,0.001c0,5.517-0.227,10.796,0.1,16.041
			c0.154,2.476,2.24,3.779,4.842,3.72c1.974-0.045,3.64,0.376,3.55,2.741c-0.091,2.401-1.87,2.829-3.888,2.836
			c-5.235,0.018-9.572-3.457-10.129-8.741c-0.459-4.35-0.291-8.765-0.389-13.152C264.452,53.322,264.472,52.27,264.472,51.174z"/>
		<path d="M353.677,50.739c0-5.057-0.011-10.115,0.004-15.172c0.008-2.917,0.841-4.103,2.853-3.969
			c2.487,0.165,2.743,1.922,2.738,3.912c-0.024,9.783-0.016,19.566-0.009,29.349c0.003,4.476,0.498,4.964,4.734,5.965
			c0.819,0.194,1.998,1.379,1.965,2.057c-0.048,1.01-0.789,2.375-1.654,2.885c-2.329,1.373-6.468,0.294-8.12-2.501
			c-1.328-2.246-2.209-5.01-2.404-7.61C353.415,60.707,353.678,55.713,353.677,50.739z"/>
		<path d="M443.602,48.709c3.882-3.338,7.876-4.8,12.535-3.736c0.867,0.198,1.889,0.475,2.443,1.076
			c0.569,0.618,1.073,1.829,0.829,2.502c-0.243,0.672-1.427,1.357-2.237,1.407c-2.3,0.143-4.66-0.329-6.925-0.027
			c-4.665,0.623-6.76,3.236-6.785,7.945c-0.026,4.968-0.029,9.936,0.002,14.904c0.012,1.993-0.512,3.521-2.86,3.452
			c-2.316-0.068-2.759-1.619-2.749-3.597c0.04-7.866,0.03-15.732,0.007-23.598c-0.005-1.817-0.035-3.629,2.323-3.988
			C442.571,44.686,443.458,46.122,443.602,48.709z"/>
	</g>
</g>
</svg>
