<svg xmlns="http://www.w3.org/2000/svg" viewBox="0 0 106.154 131">
  <defs>
    <style>
      .cls-1 {
        fill: #cbc9c9;
      }

      .cls-2, .cls-4 {
        fill: #fff;
      }

      .cls-2 {
        stroke: #fff;
      }

      .cls-3, .cls-4 {
        stroke: none;
      }
    </style>
  </defs>
  <g id="Group_2" data-name="Group 2" transform="translate(-139.814 2.5)">
    <g id="Path_6" data-name="Path 6" class="cls-1" transform="translate(4.049 -10.782)">
      <path class="cls-3" d="M 159.0711364746094 136.9606018066406 C 155.6216278076172 136.9606018066406 152.46923828125 136.32958984375 150.6385192871094 135.2726287841797 C 149.5070037841797 134.6193237304688 149.1826629638672 133.2697448730469 149.0007171630859 131.9086608886719 C 148.8515167236328 130.7925109863281 148.7729797363281 129.3116912841797 148.7606048583984 127.3816070556641 C 148.7397308349609 124.1280975341797 148.9163055419922 119.5649642944336 149.2853698730469 113.8189697265625 C 149.9526672363281 103.4297332763672 151.1027221679688 91.29351043701172 151.8637390136719 83.26274871826172 C 152.2305450439453 79.39179992675781 152.5503234863281 76.01727294921875 152.5875091552734 75.17375183105469 C 152.3597869873047 74.89350128173828 151.3823699951172 74.16152954101562 148.9703979492188 73.48429107666016 C 146.9365539550781 72.91322326660156 144.5122222900391 72.55847930908203 142.6435241699219 72.55847930908203 C 142.4542846679688 72.55847930908203 142.2725219726562 72.56234741210938 142.1032409667969 72.56998443603516 C 142.0645141601562 72.57173156738281 142.0274658203125 72.57257080078125 141.989013671875 72.57257080078125 C 141.1990966796875 72.57257080078125 140.4622802734375 72.20736694335938 139.9142761230469 71.54424285888672 C 139.6036529541016 71.16835021972656 139.3454284667969 70.69145965576172 139.1248931884766 70.08631134033203 C 138.8045959472656 69.20738220214844 138.5492401123047 68.0198974609375 138.34423828125 66.45602416992188 C 137.9963684082031 63.80204010009766 137.8031311035156 60.13031387329102 137.7698974609375 55.54281997680664 C 137.7198333740234 48.63020324707031 138.0440979003906 40.27994918823242 138.6373596191406 33.20587539672852 C 138.9263610839844 29.75956726074219 139.2636566162109 26.86284065246582 139.61279296875 24.82887649536133 C 139.8104400634766 23.67729377746582 140.0095977783203 22.80313110351562 140.2215576171875 22.15645790100098 C 140.3689727783203 21.70671272277832 140.5230865478516 21.36187553405762 140.7065582275391 21.07125854492188 C 141.3552703857422 20.04364013671875 142.2786560058594 19.92033004760742 142.6455535888672 19.9150218963623 L 142.6600494384766 19.91480255126953 L 142.6785888671875 19.91476631164551 C 143.1261138916016 19.91476631164551 143.9847869873047 20.05682182312012 144.7072448730469 21.0081844329834 C 144.9547729492188 21.33413124084473 145.1867218017578 21.75242233276367 145.4163513183594 22.28694915771484 C 145.7539672851562 23.0728759765625 146.1116485595703 24.16800308227539 146.5098114013672 25.6348934173584 C 147.2185211181641 28.24589347839355 147.9555969238281 31.64740371704102 148.7359313964844 35.2486572265625 C 149.4555358886719 38.56954956054688 150.1996459960938 42.00351333618164 150.9172973632812 44.75545883178711 C 151.0640869140625 45.31831359863281 151.2011871337891 45.8183708190918 151.3288421630859 46.26299667358398 C 151.4377593994141 45.64375305175781 151.5489959716797 44.95277404785156 151.6639251708984 44.18254852294922 C 152.1356201171875 41.0209846496582 152.5802307128906 37.1229133605957 153.0509338378906 32.99594879150391 C 153.6338958740234 27.88478469848633 154.2367248535156 22.5996036529541 154.9192047119141 18.58703994750977 C 155.2994232177734 16.35151290893555 155.6743469238281 14.68563938140869 156.0653533935547 13.49423980712891 C 156.3191528320312 12.72093105316162 156.5882568359375 12.12287616729736 156.8881072998047 11.66593074798584 C 157.6780242919922 10.46198558807373 158.6761474609375 10.28222179412842 159.2008056640625 10.28222179412842 C 159.7239837646484 10.28222179412842 160.7164154052734 10.45920372009277 161.4848785400391 11.64447593688965 C 161.7732086181641 12.08920383453369 162.0255584716797 12.66733074188232 162.2563018798828 13.41189384460449 C 162.6066741943359 14.54245758056641 162.9286041259766 16.12271308898926 163.240478515625 18.24298477172852 C 163.7994384765625 22.04322242736816 164.2558441162109 27.11982154846191 164.6972198486328 32.02927780151367 C 165.0683746337891 36.1576042175293 165.4521331787109 40.42647552490234 165.885498046875 43.77587509155273 C 166.0646514892578 45.16045379638672 166.2342681884766 46.23552322387695 166.3876953125 47.06878662109375 C 166.6225738525391 46.41608047485352 166.8926391601562 45.60104370117188 167.1989288330078 44.58383941650391 C 168.0477294921875 41.76511383056641 168.9244232177734 38.25634765625 169.7722320556641 34.86311340332031 C 170.6519165039062 31.34234809875488 171.4828033447266 28.0168399810791 172.2710113525391 25.47122192382812 C 172.7147674560547 24.03798484802246 173.1113739013672 22.96573066711426 173.4834594726562 22.19320297241211 C 173.7767028808594 21.58444023132324 174.5556030273438 19.96731185913086 176.1981048583984 19.91578483581543 C 176.2220764160156 19.9150390625 176.2431335449219 19.91471290588379 176.2671051025391 19.91471290588379 C 176.6974792480469 19.91471290588379 177.5154876708984 20.04576683044434 178.1585388183594 20.92354965209961 C 178.3605041503906 21.19925880432129 178.5351409912109 21.53814888000488 178.6923980712891 21.95962142944336 C 178.9110260009766 22.54556655883789 179.1127471923828 23.33229446411133 179.3090667724609 24.36474800109863 C 179.6533508300781 26.17536735534668 179.9703979492188 28.67989349365234 180.2513580322266 31.80873107910156 C 180.8032073974609 37.95402145385742 181.1326599121094 45.66400527954102 181.1326599121094 52.43292999267578 C 181.1326599121094 57.74640274047852 180.9301605224609 62.23425674438477 180.5469970703125 65.41131591796875 C 180.3204345703125 67.28998565673828 180.0358581542969 68.71291351318359 179.677001953125 69.76142120361328 C 179.4392242431641 70.45618438720703 179.1631011962891 70.9998779296875 178.8328399658203 71.42353057861328 C 178.0538940429688 72.42282104492188 177.1153564453125 72.572021484375 176.625244140625 72.572021484375 C 174.6842803955078 72.572021484375 171.9773254394531 72.93236541748047 169.7289123535156 73.49005889892578 C 166.9497375488281 74.17938995361328 165.7950744628906 74.91909027099609 165.4848175048828 75.23817443847656 C 165.5292358398438 76.12588500976562 165.7993469238281 79.18312835693359 166.1078796386719 82.67546081542969 C 166.8160400390625 90.69076538085938 167.8862152099609 102.8035659790039 168.4963226318359 113.3552017211914 C 168.8342437744141 119.199348449707 168.9854583740234 123.8508071899414 168.9458160400391 127.1803665161133 C 168.9222869873047 129.1550140380859 168.8349151611328 130.6734008789062 168.6787414550781 131.8222503662109 C 168.4941558837891 133.1798553466797 168.1763763427734 134.5311431884766 167.1099395751953 135.2203369140625 C 164.7669067382812 136.7345123291016 161.0676574707031 136.9606018066406 159.0711364746094 136.9606018066406 Z"/>
      <path class="cls-4" d="M 159.0711364746094 134.9606018066406 C 161.8133087158203 134.9606018066406 164.5208892822266 134.51220703125 166.0244140625 133.5405578613281 C 169.1194305419922 131.5403900146484 163.4784240722656 77.81023406982422 163.4784240722656 75.04581451416016 C 163.4784240722656 72.28139495849609 172.2296142578125 70.57201385498047 176.625244140625 70.57201385498047 C 181.0171356201172 70.57201385498047 178.8146820068359 21.91471862792969 176.2671051025391 21.91471862792969 C 176.2649230957031 21.91471862792969 176.2630157470703 21.91474723815918 176.2608337402344 21.91481590270996 C 173.7104644775391 21.99481582641602 169.2456817626953 51.23689651489258 166.0244140625 51.35859680175781 C 166.0195007324219 51.35878372192383 166.0143585205078 51.3588752746582 166.0094451904297 51.35887908935547 C 162.8022155761719 51.36076354980469 162.5822143554688 12.28223609924316 159.2008056640625 12.28223609924316 C 155.8142242431641 12.28223609924316 154.4344024658203 51.35859680175781 151.6385345458984 51.35859680175781 C 148.8443298339844 51.35859680175781 145.0243682861328 21.91478729248047 142.6785888671875 21.91478729248047 C 142.6771545410156 21.91478729248047 142.6759643554688 21.914794921875 142.6745300292969 21.91481590270996 C 140.3337097167969 21.94873046875 137.8451690673828 70.57256317138672 141.9889831542969 70.57256317138672 C 141.9971008300781 70.57256317138672 142.0049133300781 70.5723876953125 142.0130615234375 70.57201385498047 C 142.2137603759766 70.56295776367188 142.4246978759766 70.5584716796875 142.6434783935547 70.5584716796875 C 146.9793853759766 70.5584716796875 154.5931854248047 72.31540679931641 154.5911102294922 75.04581451416016 C 154.5889282226562 77.91399383544922 148.5493927001953 131.7570495605469 151.6385345458984 133.5405578613281 C 153.2270355224609 134.4576873779297 156.1684112548828 134.9606018066406 159.0711364746094 134.9606018066406 M 159.0711517333984 138.9606018066406 C 157.2536468505859 138.9606018066406 152.6962127685547 138.77001953125 149.6385345458984 137.0046539306641 C 148.6265716552734 136.4203948974609 147.8948669433594 135.4803314208984 147.4638061523438 134.2105560302734 C 147.2716064453125 133.6443939208984 147.1258850097656 132.9781188964844 147.0183715820312 132.1736297607422 C 146.8578643798828 130.9730377197266 146.7735748291016 129.4097290039062 146.7606506347656 127.394416809082 C 146.7394866943359 124.0940780639648 146.9174041748047 119.4834976196289 147.2894744873047 113.6907730102539 C 147.9587097167969 103.2712554931641 149.1104888916016 91.11687469482422 149.8726501464844 83.07405853271484 C 150.1344299316406 80.31147003173828 150.3857269287109 77.65970611572266 150.5103759765625 76.16556549072266 C 149.9821624755859 75.90796661376953 149.1042175292969 75.56541442871094 147.7898712158203 75.24143981933594 C 146.0809020996094 74.82017517089844 144.1089324951172 74.55847930908203 142.6434936523438 74.55847930908203 C 142.4840698242188 74.55847930908203 142.3326416015625 74.56165313720703 142.1934661865234 74.56793975830078 C 142.1227874755859 74.57107543945312 142.0553741455078 74.57255554199219 141.9889831542969 74.57255554199219 C 140.9793853759766 74.57255554199219 138.4961700439453 74.20213317871094 137.2457885742188 70.77113342285156 C 136.8747863769531 69.75311279296875 136.58544921875 68.42667388916016 136.3612060546875 66.71601867675781 C 136.0027160644531 63.98097610473633 135.8037719726562 60.22671508789062 135.7699432373047 55.5574951171875 C 135.7194519042969 48.58791732788086 136.0463256835938 40.16973495483398 136.6443328857422 33.03883743286133 C 136.9380645751953 29.53619575500488 137.2829132080078 26.58025550842285 137.6416015625 24.49057579040527 C 137.8560028076172 23.24147605895996 138.0782470703125 22.27423667907715 138.3210296630859 21.53353691101074 C 138.5183258056641 20.93161582946777 138.7454223632812 20.43117523193359 139.0153350830078 20.00363540649414 C 139.8397827148438 18.69765663146973 141.1523895263672 17.93645668029785 142.6165618896484 17.91523551940918 L 142.6455535888672 17.91481590270996 L 142.6785888671875 17.91479682922363 C 143.4968109130859 17.91479682922363 145.0552825927734 18.15953636169434 146.3000335693359 19.79863548278809 C 146.6472320556641 20.25585556030273 146.9592742919922 20.81157684326172 147.2539672851562 21.49755668640137 C 147.6342315673828 22.38275527954102 148.0110931396484 23.53093528747559 148.4399719238281 25.11101531982422 C 149.1622161865234 27.7718563079834 149.9045867919922 31.19789695739746 150.6905670166016 34.82509613037109 C 150.7206573486328 34.96392440795898 150.7507171630859 35.10269546508789 150.7808990478516 35.24188232421875 C 150.8743896484375 34.43029022216797 150.9685211181641 33.60489273071289 151.0638275146484 32.76933670043945 C 151.6498565673828 27.6313362121582 152.2558135986328 22.31841659545898 152.947509765625 18.25169563293457 C 153.3445434570312 15.91737651824951 153.7428283691406 14.15721607208252 154.1650695800781 12.87059593200684 C 154.4787902832031 11.91469573974609 154.8127136230469 11.18327617645264 155.2159118652344 10.56875610351562 C 156.1693420410156 9.115635871887207 157.6217956542969 8.282236099243164 159.2008056640625 8.282236099243164 C 160.7818145751953 8.282236099243164 162.2259674072266 9.111156463623047 163.1630249023438 10.55645656585693 C 163.5579681396484 11.16559600830078 163.8768615722656 11.88479614257812 164.1666717529297 12.81985569000244 C 164.5478820800781 14.04989624023438 164.8921661376953 15.72861576080322 165.2191925048828 17.95193672180176 C 165.7863616943359 21.80795669555664 166.2453308105469 26.91309547424316 166.6891937255859 31.85015678405762 C 166.8447265625 33.58026504516602 167.0025939941406 35.33634185791016 167.1651916503906 37.03642654418945 C 167.3887023925781 36.15208053588867 167.611328125 35.26105499267578 167.8318939208984 34.37833786010742 C 168.7184753417969 30.82989692687988 169.555908203125 27.47825622558594 170.3604888916016 24.87969589233398 C 170.8404693603516 23.32951545715332 171.26025390625 22.20007705688477 171.6816101074219 21.32531547546387 C 172.0064544677734 20.6508960723877 172.3462219238281 20.10517692565918 172.7203674316406 19.65699577331543 C 173.9384307861328 18.19785690307617 175.3828277587891 17.94039535522461 176.1354064941406 17.91677665710449 L 176.1430816650391 17.91653633117676 L 176.1507720947266 17.91633605957031 C 176.191162109375 17.91521644592285 176.2267303466797 17.91471672058105 176.2671051025391 17.91471672058105 C 177.1843719482422 17.91471672058105 179.4394683837891 18.24073600769043 180.5662078857422 21.26047706604004 C 180.8247528076172 21.95335578918457 181.0562286376953 22.84657669067383 181.2738647460938 23.99115562438965 C 181.6303558349609 25.8659553527832 181.9565277099609 28.43599700927734 182.2433471679688 31.62987518310547 C 182.8002014160156 37.8310546875 183.1326751708984 45.60791778564453 183.1326751708984 52.43295669555664 C 183.1326751708984 57.82503509521484 182.9251708984375 62.39569473266602 182.5326080322266 65.65079498291016 C 182.2890930175781 67.67007446289062 181.9739685058594 69.22651672363281 181.5692443847656 70.40903472900391 C 181.2583618164062 71.31737518310547 180.8792419433594 72.05141448974609 180.4102325439453 72.65311431884766 C 179.4596099853516 73.87259674072266 178.0800476074219 74.57201385498047 176.625244140625 74.57201385498047 C 175.0504302978516 74.57201385498047 172.7777709960938 74.85159301757812 170.8353729248047 75.28427886962891 C 169.2413787841797 75.63934326171875 168.1893005371094 76.01656341552734 167.5648956298828 76.29839324951172 C 167.6774444580078 77.71520233154297 167.8846740722656 80.060791015625 168.1001281738281 82.49947357177734 C 168.8093414306641 90.52683258056641 169.8811340332031 102.6578369140625 170.4929962158203 113.2397766113281 C 170.8335876464844 119.1300735473633 170.9858856201172 123.8283996582031 170.9456634521484 127.2041931152344 C 170.9211730957031 129.2618560791016 170.8278961181641 130.8605499267578 170.6605072021484 132.0916748046875 C 170.4235229492188 133.8348236083984 169.9453430175781 135.7692413330078 168.1955108642578 136.9000701904297 C 165.4212646484375 138.6929016113281 161.2880096435547 138.9606018066406 159.0711517333984 138.9606018066406 Z"/>
    </g>
    <g id="Path_12" data-name="Path 12" class="cls-1" transform="translate(55.912 -10.782)">
      <path class="cls-3" d="M 162.8550720214844 137.2822113037109 C 162.8545379638672 137.2822113037109 162.8545227050781 137.2822113037109 162.8539886474609 137.2822113037109 C 159.8863067626953 137.2820739746094 156.9529876708984 136.6914367675781 154.80615234375 135.6617584228516 C 153.5046234130859 135.0374755859375 153.1046905517578 133.5216674804688 152.9016723632812 132.2708129882812 C 152.7168884277344 131.1322479248047 152.6180572509766 129.6269836425781 152.5994873046875 127.6690292358398 C 152.5683746337891 124.3876953125 152.7736511230469 119.7898788452148 153.2095947265625 114.0033187866211 C 153.9968414306641 103.5538787841797 155.3607635498047 91.37933349609375 156.2633056640625 83.32317352294922 C 156.6617126464844 79.76704406738281 157.0398864746094 76.39142608642578 157.104248046875 75.41561126708984 C 156.9852142333984 75.3272705078125 156.7420806884766 75.17551422119141 156.275146484375 74.97484588623047 C 155.6226501464844 74.69442749023438 154.7646331787109 74.4144287109375 153.8562164306641 74.11797332763672 C 151.2809600830078 73.277587890625 148.0759887695312 72.23169708251953 145.5997467041016 70.0010986328125 C 143.5640563964844 68.16735076904297 141.0629425048828 65.55455017089844 139.7804412841797 61.59358978271484 C 138.5054779052734 57.65591812133789 138.611083984375 52.98811721801758 140.1033630371094 47.32346343994141 C 140.3082733154297 46.54566192626953 140.5240020751953 45.70788192749023 140.7523956298828 44.82091522216797 C 142.3302154541016 38.69369888305664 144.4911041259766 30.30217170715332 147.7920837402344 23.38577079772949 C 149.6775512695312 19.43524360656738 151.6807708740234 16.46311569213867 153.9162139892578 14.29953479766846 C 156.6704864501953 11.63384342193604 159.7430725097656 10.28222560882568 163.0486145019531 10.28222560882568 C 166.5558166503906 10.28222560882568 169.8824310302734 11.80428028106689 172.9361114501953 14.80611610412598 C 175.3774719238281 17.2060432434082 177.6816864013672 20.6019172668457 179.7847747802734 24.8994255065918 C 183.7262725830078 32.95355224609375 186.1333312988281 42.45693588256836 187.2173461914062 47.40495300292969 L 187.2257995605469 47.44360733032227 L 187.2327423095703 47.48257064819336 C 188.2823333740234 53.38108062744141 188.3154602050781 58.00831604003906 187.3340148925781 61.62871551513672 C 186.3665161132812 65.19770050048828 184.3760070800781 67.98770141601562 181.2487640380859 70.15814971923828 C 178.6903991699219 71.93375396728516 175.7127227783203 72.96273803710938 173.3201141357422 73.78955078125 C 172.2644348144531 74.15435028076172 171.2672882080078 74.49893188476562 170.5168609619141 74.83746337890625 C 169.9205169677734 75.10647583007812 169.6444702148438 75.29787445068359 169.5240631103516 75.39923858642578 C 169.5665588378906 76.22439575195312 169.81201171875 78.95847320556641 170.0921783447266 82.07936859130859 C 170.7701568603516 89.63160705566406 171.9049072265625 102.2717514038086 172.4842071533203 113.0934066772461 C 172.8060150146484 119.1048812866211 172.9194183349609 123.8950271606445 172.8212890625 127.3307876586914 C 172.7627868652344 129.3800048828125 172.6327514648438 130.9575958251953 172.4237976074219 132.1536865234375 C 172.1891479492188 133.4969329833984 171.7831878662109 134.9592590332031 170.5514068603516 135.6205596923828 C 168.5556335449219 136.6920318603516 165.8220672607422 137.2822113037109 162.8550720214844 137.2822113037109 Z"/>
      <path class="cls-4" d="M 162.8540649414062 135.2822113037109 C 165.3316497802734 135.2823181152344 167.7908172607422 134.8326416015625 169.6053771972656 133.8584442138672 C 173.3407745361328 131.8530426025391 167.517578125 77.98204040527344 167.517578125 75.21036529541016 C 167.517578125 72.43868255615234 174.8960876464844 72.13268280029297 180.1084136962891 68.51508331298828 C 185.3207550048828 64.89750671386719 187.2983551025391 59.26760482788086 185.2636871337891 47.83294296264648 C 182.7637939453125 36.42218399047852 175.7677459716797 12.28222370147705 163.0486145019531 12.28222370147705 C 150.3294677734375 12.28222370147705 145.0635223388672 36.34574508666992 142.0373840332031 47.83294296264648 C 139.0112457275391 59.32016372680664 142.4853210449219 64.50384521484375 146.9383239746094 68.51508331298828 C 151.3913269042969 72.52634429931641 159.116455078125 72.33466339111328 159.1138153076172 75.21036529541016 C 159.1111602783203 78.08606719970703 151.9428558349609 132.0702667236328 155.6710815429688 133.8584442138672 C 157.5882110595703 134.7779693603516 160.2314147949219 135.2821044921875 162.8540649414062 135.2822113037109 M 162.8548736572266 139.2822265625 L 162.8548736572266 135.2822265625 L 162.8546600341797 139.2822265625 C 159.5492401123047 139.2820587158203 156.3840026855469 138.63671875 153.9412078857422 137.4650268554688 C 153.1858062744141 137.1027221679688 152.1491546630859 136.3384246826172 151.5007476806641 134.7549438476562 C 151.2532196044922 134.1504974365234 151.0657196044922 133.4427490234375 150.9275207519531 132.5912017822266 C 150.7263793945312 131.3518676757812 150.6191253662109 129.7480010986328 150.5995788574219 127.6879653930664 C 150.5679473876953 124.3504028320312 150.7750854492188 119.6956634521484 151.2152557373047 113.85302734375 C 152.0052185058594 103.367301940918 153.3715972900391 91.17098236083984 154.2757568359375 83.10042572021484 C 154.5595092773438 80.56761932373047 154.8326416015625 78.12960815429688 154.9867401123047 76.61488342285156 C 154.4331207275391 76.4100341796875 153.7584838867188 76.18987274169922 153.2357635498047 76.019287109375 C 150.6262664794922 75.167724609375 147.0524139404297 74.00146484375 144.2611389160156 71.48708343505859 C 142.039794921875 69.486083984375 139.3067474365234 66.62326049804688 137.877685546875 62.20968246459961 C 136.4810943603516 57.89638519287109 136.5765075683594 52.86040496826172 138.1693420410156 46.81396484375 C 138.3728332519531 46.04152297973633 138.5879058837891 45.20636367797852 138.8155822753906 44.32216262817383 C 140.4138031005859 38.11570358276367 142.6026153564453 29.61568450927734 145.9871215820312 22.5243034362793 C 147.9769744873047 18.35500335693359 150.1156616210938 15.19456386566162 152.5252990722656 12.86240386962891 C 155.6654815673828 9.823224067687988 159.2060394287109 8.282223701477051 163.0486145019531 8.282223701477051 C 167.098876953125 8.282223701477051 170.897216796875 9.997323989868164 174.3381805419922 13.37986373901367 C 176.9414215087891 15.93892383575439 179.3783416748047 19.51888465881348 181.5812225341797 24.02030372619629 C 185.6147003173828 32.26242446899414 188.0677642822266 41.94114303588867 189.1710052490234 46.97692489624023 L 189.1879577636719 47.05424499511719 L 189.2018280029297 47.13218307495117 C 190.3195343017578 53.41360473632812 190.3394012451172 58.18626403808594 189.2643432617188 62.15200424194336 C 188.1684265136719 66.19466400146484 185.9195251464844 69.35094451904297 182.3890991210938 71.80118560791016 C 179.6042327880859 73.73400115966797 176.4820556640625 74.81292724609375 173.9733276367188 75.67986297607422 C 173.2594299316406 75.92656707763672 172.3080749511719 76.25532531738281 171.6131591796875 76.54164123535156 C 171.71875 77.83010101318359 171.8980865478516 79.82776641845703 172.0841674804688 81.90054321289062 C 172.7633666992188 89.46622467041016 173.9001159667969 102.1288604736328 174.4813385009766 112.9865036010742 C 174.8060607910156 119.052360534668 174.920166015625 123.8976821899414 174.8204803466797 127.3878860473633 C 174.7591857910156 129.5344085693359 174.6196594238281 131.2058868408203 174.3939666748047 132.4978637695312 C 174.2183990478516 133.5027770996094 173.7520599365234 136.1722412109375 171.4974212646484 137.3826904296875 C 168.5731201171875 138.9526672363281 165.1834869384766 139.2822265625 162.8548736572266 139.2822265625 Z"/>
    </g>
    <path id="Path_14" data-name="Path 14" class="cls-2" d="M225.235,78.472c.76.66,3.537,43.469,1.135,44.9s-4.552,2.065-4.552,1.258,2.014-1.34,3.417-3.509S224.476,77.812,225.235,78.472Z" transform="translate(-4.638 -4.616)"/>
    <path id="Path_15" data-name="Path 15" class="cls-2" d="M225.235,78.472c.76.66,3.537,43.469,1.135,44.9s-4.552,2.065-4.552,1.258,2.014-1.34,3.417-3.509S224.476,77.812,225.235,78.472Z" transform="translate(-60.41 -4.616)"/>
    <path id="Path_16" data-name="Path 16" class="cls-2" d="M181.98,21.95s1.57,33.36-1.051,35.282S175,59.954,173.64,59.294s3.686-.364,4.71-4.019S181.98,21.95,181.98,21.95Z" transform="translate(-2.616 -1.441)"/>
    <path id="Path_17" data-name="Path 17" class="cls-2" d="M231.124,57.8c2.793,1.8,6.433-1.4,8.064-3.565s2.481-7.695,1.558-15.138-6.539-27.127-8.062-26.425S248.764,49.6,231.124,57.8Z" transform="translate(-4.839 -1.219)"/>
  </g>
</svg>
